<?xml version="1.0" encoding="UTF-8"?>
<!DOCTYPE svg PUBLIC "-//W3C//DTD SVG 1.1//EN" "http://www.w3.org/Graphics/SVG/1.1/DTD/svg11.dtd">
<svg xmlns="http://www.w3.org/2000/svg" version="1.1" width="70px" height="93px" style="shape-rendering:geometricPrecision; text-rendering:geometricPrecision; image-rendering:optimizeQuality; fill-rule:evenodd; clip-rule:evenodd" xmlns:xlink="http://www.w3.org/1999/xlink">
<g><path style="opacity:0.614" fill="#fefffe" d="M 6.5,-0.5 C 7.5,-0.5 8.5,-0.5 9.5,-0.5C 14.9756,10.4512 20.4756,21.4512 26,32.5C 28.0408,33.4231 30.2075,33.7564 32.5,33.5C 32.5087,53.1735 32.8421,72.8402 33.5,92.5C 32.1667,92.5 30.8333,92.5 29.5,92.5C 23.0158,87.9351 16.6824,83.1017 10.5,78C 11.5202,75.9743 13.1868,74.6409 15.5,74C 11.0251,70.196 6.52507,66.3627 2,62.5C -0.445707,57.9065 1.05429,55.4065 6.5,55C 3.88856,51.9104 1.55523,48.7437 -0.5,45.5C -0.5,44.5 -0.5,43.5 -0.5,42.5C 1.78145,41.3918 3.94812,40.0585 6,38.5C 6.39412,25.3921 6.56078,12.3921 6.5,-0.5 Z M 11.5,55.5 C 15.0826,60.9312 18.9159,66.2645 23,71.5C 24.0113,72.3366 25.1779,72.67 26.5,72.5C 26.1437,65.9237 24.6437,59.5903 22,53.5C 21.8283,48.7982 21.3283,44.1315 20.5,39.5C 19.4763,38.1468 18.143,37.4802 16.5,37.5C 15.4426,43.0743 13.776,48.4076 11.5,53.5C 10.7326,52.828 10.0659,51.9947 9.5,51C 11.5641,46.8044 11.8975,42.471 10.5,38C 10.6368,35.102 11.1368,32.2686 12,29.5C 13.1861,31.6766 15.0194,32.6766 17.5,32.5C 17.3398,30.8008 17.5065,29.1341 18,27.5C 20.0177,30.545 21.8511,33.7117 23.5,37C 25.1341,37.4935 26.8008,37.6602 28.5,37.5C 29.2666,53.4956 29.4332,69.4956 29,85.5C 27.414,84.624 25.914,83.624 24.5,82.5C 23.7308,79.4899 22.8974,76.4899 22,73.5C 14.9197,69.3284 11.4197,63.3284 11.5,55.5 Z"/></g>
<g><path style="opacity:0.58" fill="#fefffe" d="M 59.5,-0.5 C 60.5,-0.5 61.5,-0.5 62.5,-0.5C 64.0531,2.25747 64.2198,4.92413 63,7.5C 62.3333,17.8333 62.3333,28.1667 63,38.5C 65.0519,40.0585 67.2185,41.3918 69.5,42.5C 69.5,43.5 69.5,44.5 69.5,45.5C 67.4448,48.7437 65.1114,51.9104 62.5,55C 67.9457,55.4065 69.4457,57.9065 67,62.5C 62.4749,66.3627 57.9749,70.196 53.5,74C 55.8132,74.6409 57.4798,75.9743 58.5,78C 52.3176,83.1017 45.9842,87.9351 39.5,92.5C 38.1667,92.5 36.8333,92.5 35.5,92.5C 36.1579,72.8402 36.4913,53.1735 36.5,33.5C 38.7925,33.7564 40.9592,33.4231 43,32.5C 48.5133,21.4734 54.0133,10.4734 59.5,-0.5 Z M 57.5,53.5 C 55.2245,48.4102 53.5579,43.0769 52.5,37.5C 50.6096,37.2965 49.1096,37.9632 48,39.5C 48.4005,48.5713 46.7338,57.238 43,65.5C 42.5034,67.8098 42.3367,70.1432 42.5,72.5C 43.8221,72.67 44.9887,72.3366 46,71.5C 50.0841,66.2645 53.9174,60.9312 57.5,55.5C 57.75,58.214 57.9167,60.8806 58,63.5C 54.6843,67.1458 51.0176,70.4791 47,73.5C 47.0663,79.0301 44.7329,83.0301 40,85.5C 39.5668,69.4956 39.7334,53.4956 40.5,37.5C 42.4672,37.7394 44.3005,37.4061 46,36.5C 47.7049,32.1113 50.0383,28.1113 53,24.5C 54.1711,25.8932 55.6711,26.7265 57.5,27C 58.3052,31.7488 58.8052,36.5821 59,41.5C 59.5,42 60,42.5 60.5,43C 57.0501,45.158 56.7167,47.658 59.5,50.5C 59.0576,51.7387 58.3909,52.7387 57.5,53.5 Z"/></g>
<g><path style="opacity:0.599" fill="#00e419" d="M 11.5,55.5 C 11.5,54.8333 11.5,54.1667 11.5,53.5C 13.776,48.4076 15.4426,43.0743 16.5,37.5C 18.143,37.4802 19.4763,38.1468 20.5,39.5C 21.3283,44.1315 21.8283,48.7982 22,53.5C 24.6437,59.5903 26.1437,65.9237 26.5,72.5C 25.1779,72.67 24.0113,72.3366 23,71.5C 18.9159,66.2645 15.0826,60.9312 11.5,55.5 Z"/></g>
<g><path style="opacity:0.599" fill="#00e419" d="M 57.5,53.5 C 57.5,54.1667 57.5,54.8333 57.5,55.5C 53.9174,60.9312 50.0841,66.2645 46,71.5C 44.9887,72.3366 43.8221,72.67 42.5,72.5C 42.3367,70.1432 42.5034,67.8098 43,65.5C 46.7338,57.238 48.4005,48.5713 48,39.5C 49.1096,37.9632 50.6096,37.2965 52.5,37.5C 53.5579,43.0769 55.2245,48.4102 57.5,53.5 Z"/></g>
</svg>
